<?xml version="1.0" standalone="no"?>
<!DOCTYPE svg PUBLIC "-//W3C//DTD SVG 20010904//EN"
 "http://www.w3.org/TR/2001/REC-SVG-20010904/DTD/svg10.dtd">
<svg version="1.0" xmlns="http://www.w3.org/2000/svg"
 width="2000.000000pt" height="1500.000000pt" viewBox="0 0 2000.000000 1500.000000"
 preserveAspectRatio="xMidYMid meet">

<g transform="translate(0.000000,1500.000000) scale(0.100000,-0.100000)"
fill="#000000" stroke="none">
<path d="M4556 9500 c-37 -12 -94 -66 -112 -107 -8 -18 -14 -50 -14 -71 l0
-38 -286 -163 -285 -163 -49 21 c-62 27 -112 27 -168 0 -75 -37 -115 -124 -98
-214 8 -40 55 -99 97 -121 l29 -15 0 -264 0 -264 -29 -15 c-42 -22 -89 -81
-97 -121 -17 -90 23 -177 98 -214 56 -27 106 -27 168 0 l49 21 285 -163 c279
-159 285 -163 301 -206 20 -51 74 -99 129 -114 86 -23 202 40 224 122 7 29 33
46 296 197 l288 165 44 -22 c119 -57 257 15 271 143 9 77 -33 158 -98 192
l-29 15 0 264 0 264 29 15 c65 34 107 115 98 192 -14 125 -150 199 -267 144
l-48 -23 -286 164 -286 163 0 36 c-1 126 -130 217 -254 180z m106 -137 c38
-34 11 -103 -41 -103 -48 0 -78 41 -62 83 15 39 70 50 103 20z m-42 -233 c19
0 56 10 80 23 l45 22 288 -164 287 -164 0 -36 0 -37 -286 -163 -286 -164 -44
22 c-56 27 -116 27 -171 0 l-44 -21 -286 163 -287 164 0 35 0 35 288 166 288
165 46 -23 c25 -13 62 -23 82 -23z m-856 -271 c50 -39 24 -109 -40 -109 -67 0
-85 86 -24 117 33 17 33 16 64 -8z m1790 -5 c9 -8 16 -28 16 -44 0 -36 -23
-60 -57 -60 -35 0 -63 27 -63 61 0 36 24 59 60 59 16 0 36 -7 44 -16z m-1124
-551 c0 -66 44 -139 103 -169 l27 -15 0 -232 0 -232 -41 -23 c-22 -13 -43 -30
-46 -38 -3 -8 -10 -14 -15 -14 -6 0 -129 67 -273 150 l-262 150 -7 46 c-9 68
-35 113 -83 147 l-43 31 0 262 0 262 31 20 31 19 289 -165 289 -165 0 -34z
m1020 61 l0 -263 -27 -15 c-59 -30 -103 -103 -103 -169 0 -34 0 -34 -264 -186
-145 -83 -267 -151 -271 -151 -4 0 -25 16 -46 35 -22 19 -44 35 -49 35 -6 0
-10 85 -10 235 0 233 0 234 23 246 60 31 96 86 106 161 l6 48 285 163 285 163
33 -19 32 -19 0 -264z m-807 -5 c28 -15 37 -28 37 -58 0 -33 -27 -61 -59 -61
-85 1 -88 112 -3 129 2 1 13 -4 25 -10z m-869 -398 c25 -27 17 -70 -17 -95
-26 -19 -30 -19 -55 -5 -62 34 -47 119 22 119 20 0 40 -8 50 -19z m1778 2 c22
-20 24 -66 2 -87 -8 -9 -28 -16 -44 -16 -36 0 -60 23 -60 57 0 55 62 83 102
46z m-892 -443 c40 -40 15 -110 -40 -110 -57 0 -84 76 -40 112 29 23 55 23 80
-2z"/>
<path d="M14345 8739 c-159 -26 -313 -106 -416 -215 -73 -78 -112 -137 -164
-247 -89 -187 -125 -375 -125 -643 0 -276 41 -478 135 -669 96 -195 203 -309
360 -385 104 -50 186 -70 315 -77 254 -13 463 60 625 221 211 208 307 493 308
911 0 267 -37 454 -129 644 -128 268 -318 417 -584 460 -75 12 -252 12 -325 0z
m277 -203 c111 -24 173 -60 274 -161 79 -79 98 -105 143 -195 86 -176 118
-350 108 -600 -11 -277 -72 -485 -192 -656 -101 -142 -248 -214 -437 -214
-174 0 -283 43 -393 154 -163 165 -248 425 -248 761 0 301 64 533 197 713 122
165 336 242 548 198z"/>
<path d="M7942 7918 l3 -803 27 -97 c77 -281 245 -444 515 -500 132 -27 404
-22 527 11 103 27 125 42 223 153 95 106 150 207 185 338 22 84 22 93 25 893
l4 807 -115 0 -115 0 -3 -782 c-4 -771 -4 -784 -26 -861 -67 -239 -220 -361
-467 -374 -174 -9 -310 39 -406 145 -60 66 -93 128 -122 230 -20 75 -21 97
-25 860 l-3 782 -115 0 -115 0 3 -802z"/>
<path d="M10030 7620 l0 -1100 120 0 120 0 0 875 c0 481 3 875 8 875 4 -1 243
-395 532 -878 l526 -877 127 -3 127 -3 0 1106 0 1105 -115 0 -115 0 -2 -914
-3 -914 -540 914 -540 914 -122 0 -123 0 0 -1100z"/>
<path d="M12170 7620 l0 -1100 115 0 115 0 2 543 3 542 438 3 437 2 0 105 0
105 -440 0 -440 0 2 348 3 347 478 3 477 2 0 100 0 100 -595 0 -595 0 0 -1100z"/>
<path d="M15820 7621 l0 -1101 115 0 115 0 0 515 0 515 159 0 c254 0 353 -27
442 -121 61 -64 97 -136 279 -556 l152 -353 124 0 124 0 -13 33 c-344 813
-384 902 -443 967 -36 40 -112 82 -171 95 -36 7 -45 25 -13 25 29 0 117 37
164 69 142 99 233 256 243 421 14 234 -85 429 -261 515 -138 68 -147 69 -603
73 l-413 3 0 -1100z m813 870 c78 -31 147 -100 177 -176 33 -84 33 -225 1
-308 -44 -112 -132 -194 -251 -234 -47 -15 -89 -18 -280 -18 l-225 0 -3 383
-2 383 262 -3 c246 -3 267 -5 321 -27z"/>
<path d="M3134 7342 c-249 -142 -459 -264 -468 -271 -15 -12 -16 -62 -14 -495
l3 -481 460 -264 c258 -147 471 -264 485 -264 21 0 777 422 913 509 l37 24 0
479 c0 443 -1 479 -17 493 -31 27 -915 528 -932 528 -9 0 -219 -116 -467 -258z
m842 -93 c203 -116 372 -214 376 -218 4 -4 -163 -105 -372 -224 l-380 -217
-381 217 c-340 195 -379 219 -362 231 34 25 728 420 739 421 7 1 178 -94 380
-210z m-806 -557 l365 -209 3 -372 c1 -204 0 -371 -4 -371 -3 0 -176 97 -385
216 l-379 216 0 374 c0 354 1 374 18 365 9 -5 181 -104 382 -219z m1260 -151
l0 -368 -379 -217 c-208 -119 -381 -216 -385 -216 -3 0 -6 166 -6 369 l0 370
378 215 c207 119 380 216 385 216 4 0 7 -166 7 -369z"/>
<path d="M5164 7338 c-327 -188 -462 -270 -471 -288 -18 -36 -18 -904 0 -939
16 -30 911 -545 947 -544 27 0 917 504 938 531 9 12 12 125 12 487 0 437 -1
473 -17 487 -32 27 -918 528 -934 528 -9 0 -223 -118 -475 -262z m866 -98
c204 -117 370 -213 368 -215 -2 -1 -173 -100 -382 -219 l-378 -216 -380 217
c-229 131 -375 220 -370 225 26 26 739 427 754 424 9 -2 184 -99 388 -216z
m-795 -564 l340 -195 3 -371 c2 -350 1 -372 -15 -366 -10 4 -183 102 -385 217
l-368 210 0 375 0 375 43 -25 c23 -14 195 -113 382 -220z m1235 -134 l0 -368
-378 -217 c-208 -119 -382 -217 -385 -217 -4 0 -6 167 -5 371 l3 372 370 212
c204 117 376 214 383 214 9 1 12 -79 12 -367z"/>
</g>
</svg>
